<!-- Generator: Adobe Illustrator 23.0.4, SVG Export Plug-In . SVG Version: 6.00 Build 0)  -->
<svg version="1.1" id="Layer_1" xmlns="http://www.w3.org/2000/svg" xmlns:xlink="http://www.w3.org/1999/xlink" x="0px" y="0px" viewBox="0 0 355 60" style="enable-background:new 0 0 355 60;" xml:space="preserve" width="355" height="60">
<style type="text/css">
	.st0{fill:#FDBF38;}
	.st1{fill:#DA1A32;}
</style>
<title>umgc-logo-online-classroom</title>
<ellipse transform="matrix(0.9366 -0.3504 0.3504 0.9366 -0.3481 5.5516)" class="st0" cx="15.2" cy="3.7" rx="7.4" ry="2.1" />
<path class="st0" d="M35.2,1.6C32.8,0.8,30.4,0.3,28,0l0,0c0,0,0,0,0,0.1l0,0c0.5,0.1,1,0.5,1.2,1C30,3.1,24.7,7,17.4,9.7  c-1.5,0.6-2.9,1-4.3,1.4l-1.8,6.4c2.7-0.7,5.4-1.5,8-2.5c10.1-3.8,16-8.2,17-11.4c0.1-0.3,0.1-0.6,0-0.9C36.3,2.3,36,2,35.2,1.6z" />
<path class="st1" d="M52,16.7c0.3,4.4-10.7,12-25.4,17.5c-1.4,0.5-2.8,1-4.2,1.5l-2.2,8.1c2.8-0.8,5.8-1.7,8.9-2.9  c12-4.5,20.2-9.8,24.5-14.7c0.7-0.8,1.1-1.9,0.9-3c-0.3-1.3-0.7-2.5-1.1-3.7C52.9,18.5,52.5,17.6,52,16.7L52,16.7z" />
<path class="st1" d="M47.3,9.6c-1.5-1.6-3.1-3.1-4.9-4.3c0,0,0,0-0.1,0 M42.3,5.4c0.1,0.1,0.2,0.3,0.2,0.4c1.3,3.5-8,10.2-20.9,15.1  c-7.3,2.7-14.2,4.3-19,4.4L0,32.6c5.5,0.4,13.7-1.1,24.1-5C34.8,23.6,42.2,19,46,15c0.7-0.7,1.2-1.6,1.6-2.5c0.4-0.9,0.3-2-0.3-2.9  L42.3,5.4z" />
<path d="M55.1,31.6L55.1,31.6C53,36,43.5,42.2,31.3,46.8c-5.3,2-10.7,3.5-16.3,4.5l-2,5.7c7-0.6,13.8-2.2,20.3-4.8  c5.6-2.1,15.6-6.8,19.3-11.9C54.2,37.6,55.1,34.7,55.1,31.6C55.2,31.6,55.2,31.6,55.1,31.6z" />
<path d="M50.1,46.8L50.1,46.8c-4.9,3.7-10.2,6.7-15.9,8.8c-1.4,0.5-2.9,1-4.3,1.4L29,60C37.5,58.8,45.2,54.1,50.1,46.8L50.1,46.8z" />
<path d="M71.4,11.4H74v9.2c0.1,1.8,1.6,3.1,3.4,3c1.6-0.1,2.9-1.4,3-3v-9.2H83v9.2c0,3.2-2.3,5.4-5.8,5.4s-5.8-2.2-5.8-5.4  L71.4,11.4z" />
<path d="M87.3,11.4h2.6l5.4,8.3c0.4,0.7,0.8,1.5,1.2,2.2l0,0c0,0-0.1-1.4-0.1-2.2v-8.3H99v14.4h-2.6L91,17.5  c-0.4-0.7-0.8-1.5-1.2-2.2l0,0c0,0,0.2,1.4,0.2,2.2v8.3h-2.7V11.4z" />
<path d="M103.5,11.4h2.6v14.4h-2.6V11.4z" />
<path d="M108.7,11.4h2.8l3.2,9.4c0.3,0.8,0.5,2.1,0.6,2.1l0,0c0,0,0.3-1.3,0.6-2.1l3.2-9.4h2.8l-5.2,14.4H114L108.7,11.4z" />
<path d="M124.4,11.4h8.6v2.3h-6v3.8h4.9v2.2h-4.8v3.9h6.3v2.3h-8.9L124.4,11.4z" />
<path d="M136.9,11.4h4.6c1-0.1,2,0.1,2.9,0.4c1.5,0.7,2.5,2.3,2.4,3.9c0.1,1.7-0.9,3.2-2.4,3.9l0,0c0.2,0.2,0.4,0.5,0.5,0.7l3,5.4  h-2.9l-2.9-5.4h-2.5v5.4H137L136.9,11.4z M141.9,18.1c1.1,0.1,2.2-0.7,2.3-1.9c0-0.1,0-0.3,0-0.4c0-1.4-0.6-2.2-2.6-2.2h-2v4.5  H141.9z" />
<path d="M151.4,22.1c1,0.9,2.3,1.5,3.6,1.5c1.1,0,2.1-0.6,2.1-1.8c0-2.6-6.8-2.1-6.8-6.6c0-2.4,2.1-4.2,4.8-4.2  c1.6-0.1,3.1,0.5,4.3,1.5l-1.1,2.1c-0.9-0.8-2-1.2-3.2-1.2c-1.2,0-2.2,0.7-2.2,1.7c0,2.6,6.8,1.9,6.8,6.5c0,2.3-1.7,4.2-4.7,4.2  c-1.9,0-3.7-0.7-5-2L151.4,22.1z" />
<path d="M163.1,11.4h2.6v14.4h-2.6V11.4z" />
<path d="M173.2,13.6h-4.7v-2.3h12.1v2.3h-4.7v12.2h-2.6V13.6z" />
<path d="M186.6,19.8l-4.8-8.4h3l2.2,4.2c0.5,0.9,0.9,1.9,0.9,1.9l0,0c0,0,0.4-1,0.9-1.9l2.3-4.2h3l-4.8,8.4v6h-2.6L186.6,19.8z" />
<path d="M208.8,11.1c4-0.1,7.4,3.1,7.4,7.1c0,0.1,0,0.2,0,0.2c0.2,4.1-3.1,7.6-7.2,7.7c-4.1,0.2-7.6-3.1-7.7-7.2c0-0.2,0-0.4,0-0.5  c0-4,3.2-7.3,7.2-7.3C208.7,11.1,208.7,11.1,208.8,11.1z M208.8,23.6c2.7-0.1,4.8-2.3,4.8-5c0,0,0-0.1,0-0.1c0.1-2.6-1.9-4.8-4.5-5  s-4.8,1.9-5,4.5c0,0.1,0,0.3,0,0.4c-0.2,2.7,1.9,5,4.6,5.2C208.7,23.6,208.8,23.6,208.8,23.6z" />
<path d="M219.5,11.4h8.3v2.3h-5.7v4.1h4.8V20h-4.8v5.8h-2.6V11.4z" />
<path d="M237.5,11.4h2.8l2.8,7.1c0.3,0.9,0.7,2.1,0.7,2.1l0,0c0,0,0.4-1.2,0.7-2.1l2.8-7.1h2.8l1.2,14.4h-2.6l-0.6-8.1  c-0.1-1,0-2.2,0-2.2l0,0c0,0-0.4,1.4-0.8,2.2l-2.3,5.6h-2.3l-2.3-5.6c-0.3-0.8-0.8-2.2-0.8-2.2l0,0c0,0,0,1.3,0,2.2l-0.7,8.1h-2.6  L237.5,11.4z" />
<path d="M262.6,22.1h-5l-1.2,3.7h-2.7l5.1-14.4h2.7l5.1,14.4h-2.7L262.6,22.1z M260.1,13.9c0,0-0.3,1.4-0.6,2.2l-1.3,3.9h3.8  l-1.3-3.9C260.4,15.3,260.1,13.9,260.1,13.9L260.1,13.9z" />
<path d="M268.5,11.4h4.6c1-0.1,2,0.1,2.9,0.4c1.5,0.7,2.5,2.3,2.4,3.9c0.1,1.7-0.9,3.2-2.4,3.9l0,0c0.2,0.2,0.4,0.5,0.5,0.7l3,5.4  h-2.9l-2.9-5.4h-2.5v5.4h-2.6L268.5,11.4z M273.5,18.1c1.1,0.1,2.2-0.7,2.3-1.9c0-0.1,0-0.3,0-0.4c0-1.4-0.6-2.2-2.6-2.2h-2v4.5  H273.5z" />
<path d="M284.5,19.8l-4.8-8.4h3l2.2,4.2c0.5,0.9,0.9,1.9,0.9,1.9l0,0c0,0,0.4-1,0.9-1.9l2.2-4.2h3l-4.8,8.4v6h-2.6V19.8z" />
<path d="M294,11.4h2.6v12.2h6.2v2.3H294V11.4z" />
<path d="M313.9,22.1h-5l-1.2,3.7h-2.7l5.1-14.4h2.7l5.1,14.4h-2.7L313.9,22.1z M311.4,13.9c0,0-0.3,1.4-0.6,2.2l-1.3,3.9h3.8  l-1.2-3.9C311.7,15.3,311.4,13.9,311.4,13.9L311.4,13.9z" />
<path d="M319.9,11.4h2.6l5.5,8.3c0.4,0.7,0.8,1.5,1.2,2.2l0,0c0,0-0.1-1.4-0.1-2.2v-8.3h2.6v14.4H329l-5.5-8.3  c-0.4-0.7-0.8-1.5-1.2-2.2l0,0c0,0,0.1,1.4,0.1,2.2v8.3h-2.6L319.9,11.4z" />
<path d="M335.5,11.4h4.9c4.5,0,7.4,2.6,7.4,7.2s-2.9,7.2-7.4,7.2h-4.9V11.4z M340.2,23.5c2.9,0,4.8-1.7,4.8-5s-1.9-4.9-4.8-4.9h-2.1  v9.9L340.2,23.5z" />
<path d="M78,34c2-0.1,3.9,0.6,5.4,1.8l-1.3,2c-1.1-0.9-2.4-1.4-3.8-1.4c-2.6-0.2-4.8,1.8-4.9,4.4c0,0.2,0,0.4,0,0.6  c-0.2,2.6,1.8,5,4.4,5.1c0.1,0,0.2,0,0.4,0c1.4,0,2.7-0.6,3.7-1.5v-1.7h-2.2v-2.2h4.6v7.6h-2.2V48c0-0.3,0-0.6,0-0.6h-0.1  c-1.1,1-2.6,1.6-4.2,1.5c-3.9,0-7.1-3.2-7.1-7.1c0-0.1,0-0.2,0-0.4c-0.1-4,3.1-7.4,7.1-7.5C77.8,34,77.9,34,78,34z" />
<path d="M87.8,34.3h2.6v12.2h6.2v2.2h-8.8V34.3z" />
<path d="M105.7,34c4-0.1,7.3,3.1,7.4,7.1c0,0.1,0,0.2,0,0.2c0.2,4.1-3.1,7.6-7.2,7.7c-4.1,0.2-7.6-3.1-7.7-7.2c0-0.2,0-0.4,0-0.5  c0-4,3.2-7.3,7.2-7.3C105.6,34,105.6,34,105.7,34z M105.7,46.5c2.7-0.1,4.8-2.3,4.7-5c0-0.1,0-0.1,0-0.1c0.1-2.6-1.9-4.8-4.5-5  c-2.6-0.1-4.8,1.9-5,4.5c0,0.1,0,0.3,0,0.4c-0.2,2.7,1.9,5,4.6,5.2C105.6,46.5,105.7,46.5,105.7,46.5L105.7,46.5z" />
<path d="M116,34.3h5.2c2.6,0,4.4,1.3,4.4,3.7c0,1.3-0.6,2.5-1.7,3.1l0,0c1.5,0.5,2.4,1.9,2.3,3.4c0,2.9-2.3,4.2-5,4.2H116V34.3z   M121.2,40.1c0.9,0.1,1.8-0.6,1.8-1.6c0-0.1,0-0.2,0-0.3c0.1-0.9-0.6-1.7-1.5-1.8c-0.1,0-0.2,0-0.3,0h-2.5v3.6L121.2,40.1z   M121.4,46.4c1.1,0,2.1-0.9,2.1-2.1c0-1.1-0.9-2.1-2.1-2.1c0,0,0,0,0,0h-2.8v4.2H121.4z" />
<path d="M137,45h-5l-1.2,3.7H128l5.1-14.4h2.7l5.1,14.4h-2.7L137,45z M134.5,36.8c0,0-0.3,1.4-0.6,2.2l-1.3,3.9h3.8l-1.3-3.9  C134.8,38.2,134.5,36.8,134.5,36.8L134.5,36.8z" />
<path d="M143.6,34.3h2.6v12.2h6.2v2.2h-8.9L143.6,34.3z" />
<path d="M167.5,34c2-0.1,3.9,0.7,5.3,2l-1.3,2c-1.1-0.9-2.5-1.5-3.9-1.5c-2.6-0.1-4.8,2-4.8,4.5c0,0.1,0,0.3,0,0.4  c-0.2,2.7,1.9,5,4.6,5.2c0.1,0,0.2,0,0.3,0c1.6-0.1,3.1-0.7,4.2-1.8l1.4,1.9c-1.5,1.5-3.5,2.4-5.7,2.3c-4.1-0.2-7.3-3.6-7.2-7.7  C160.5,37.4,163.6,34.2,167.5,34L167.5,34z" />
<path d="M183.6,45h-5.1l-1.2,3.7h-2.7l5.1-14.4h2.7l5.1,14.4h-2.7L183.6,45z M181,36.8c0,0-0.3,1.4-0.6,2.2l-1.3,3.9h3.8l-1.3-3.8  C181.4,38.2,181.1,36.8,181,36.8L181,36.8z" />
<path d="M191,34.3h2.8l2.8,7.1c0.3,0.8,0.7,2.1,0.7,2.1l0,0c0,0,0.4-1.3,0.7-2.1l2.8-7.1h2.8l1.2,14.4h-2.6l-0.6-8.1  c-0.1-1,0-2.2,0-2.2l0,0c0,0-0.4,1.4-0.8,2.2l-2.3,5.6h-2.3l-2.3-5.6c-0.3-0.8-0.8-2.2-0.8-2.2l0,0c0,0,0,1.3,0,2.2l-0.6,8.1h-2.6  L191,34.3z" />
<path d="M208.2,34.3h5.6c2.4-0.1,4.5,1.8,4.6,4.2c0,0.2,0,0.3,0,0.5c0.2,2.5-1.7,4.6-4.2,4.7c-0.1,0-0.3,0-0.4,0h-2.9v5h-2.6V34.3z   M213.3,41.4c1.3,0.1,2.3-0.9,2.4-2.1c0-0.1,0-0.3,0-0.4c0.1-1.2-0.8-2.3-2-2.4c-0.1,0-0.2,0-0.4,0h-2.5v4.9H213.3z" />
<path d="M221.3,34.3h2.6v9.2c0.1,1.8,1.6,3.1,3.4,3c1.6-0.1,2.9-1.4,3-3v-9.2h2.6v9.2c0,3.2-2.3,5.4-5.8,5.4s-5.8-2.2-5.8-5.4  L221.3,34.3z" />
<path d="M237.2,45c1,0.9,2.3,1.4,3.6,1.5c1.1,0,2.1-0.6,2.1-1.8c0-2.6-6.8-2.1-6.8-6.5c0-2.4,2.1-4.2,4.8-4.2  c1.6-0.1,3.1,0.5,4.3,1.5l-1.1,2.1c-0.9-0.8-2-1.2-3.2-1.2c-1.2,0-2.2,0.7-2.2,1.7c0,2.6,6.8,1.9,6.8,6.5c0,2.3-1.7,4.2-4.7,4.2  c-1.9,0-3.7-0.7-5-2L237.2,45z" />
</svg>